2014030_C5_02_grf
version=1
nRows=27
nColumns=19
inDegrees=no
endheader
time	ground_force_1_vx	ground_force_1_vy	ground_force_1_vz	ground_force_1_px	ground_force_1_py	ground_force_1_pz	ground_force_1_mx	ground_force_1_my	ground_force_1_mz	ground_force_2_vx	ground_force_2_vy	ground_force_2_vz	ground_force_2_px	ground_force_2_py	ground_force_2_pz	ground_force_2_mx	ground_force_2_my	ground_force_2_mz
      0.77500000	      0.00000000	      0.00000000	      0.00000000	      0.00000000	      0.00000000	      0.00000000	      0.00000000	      0.00000000	      0.00000000	    -23.13641366	    485.50095782	     16.01812094	      0.77140236	     -0.00200000	     -0.29189322	      0.00000000	      0.07320691	      0.00000000
      0.77600000	      0.00000000	      0.00000000	      0.00000000	      0.00000000	      0.00000000	      0.00000000	      0.00000000	      0.00000000	      0.00000000	    -22.91013487	    484.28991437	     16.01497680	      0.77214642	     -0.00200000	     -0.29193425	      0.00000000	      0.07699232	     -0.00000000
      0.77700000	      0.00000000	      0.00000000	      0.00000000	      0.00000000	      0.00000000	      0.00000000	      0.00000000	      0.00000000	      0.00000000	    -22.68711850	    483.11214522	     16.00610912	      0.77288788	     -0.00200000	     -0.29197300	      0.00000000	      0.08084761	      0.00000000
      0.77800000	      0.00000000	      0.00000000	      0.00000000	      0.00000000	      0.00000000	      0.00000000	      0.00000000	      0.00000000	      0.00000000	    -22.46658877	    481.96128756	     15.99258184	      0.77362717	     -0.00200000	     -0.29200991	      0.00000000	      0.08474894	      0.00000000
      0.77900000	      0.00000000	      0.00000000	      0.00000000	      0.00000000	      0.00000000	      0.00000000	      0.00000000	      0.00000000	      0.00000000	    -22.24901225	    480.84438220	     15.97314999	      0.77436365	     -0.00200000	     -0.29204454	      0.00000000	      0.08869472	      0.00000000
      0.78000000	      0.00000000	      0.00000000	      0.00000000	      0.00000000	      0.00000000	      0.00000000	      0.00000000	      0.00000000	      0.00000000	    -22.03367278	    479.75475341	     15.94894379	      0.77509780	     -0.00200000	     -0.29207736	      0.00000000	      0.09266570	      0.00000000
      0.78100000	      0.00000000	      0.00000000	      0.00000000	      0.00000000	      0.00000000	      0.00000000	      0.00000000	      0.00000000	      0.00000000	    -21.82096429	    478.69959846	     15.91872498	      0.77582892	     -0.00200000	     -0.29210795	      0.00000000	      0.09665650	      0.00000000
      0.78200000	      0.00000000	      0.00000000	      0.00000000	      0.00000000	      0.00000000	      0.00000000	      0.00000000	      0.00000000	      0.00000000	    -21.61023021	    477.67208517	     15.88367522	      0.77655753	     -0.00200000	     -0.29213678	      0.00000000	      0.10065364	      0.00000000
      0.78300000	      0.00000000	      0.00000000	      0.00000000	      0.00000000	      0.00000000	      0.00000000	      0.00000000	      0.00000000	      0.00000000	    -21.40180860	    476.67943686	     15.84258080	      0.77728290	     -0.00200000	     -0.29216342	      0.00000000	      0.10464877	      0.00000000
      0.78400000	      0.00000000	      0.00000000	      0.00000000	      0.00000000	      0.00000000	      0.00000000	      0.00000000	      0.00000000	      0.00000000	    -21.19511738	    475.71479529	     15.79665840	      0.77800558	     -0.00200000	     -0.29218833	      0.00000000	      0.10863500	      0.00000000
      0.78500000	      0.00000000	      0.00000000	      0.00000000	      0.00000000	      0.00000000	      0.00000000	      0.00000000	      0.00000000	      0.00000000	    -20.99045645	    474.78535771	     15.74472785	      0.77872477	     -0.00200000	     -0.29221108	      0.00000000	      0.11260248	      0.00000000
      0.78600000	      0.00000000	      0.00000000	      0.00000000	      0.00000000	      0.00000000	      0.00000000	      0.00000000	      0.00000000	      0.00000000	    -20.78731917	    473.88423979	     15.68802446	      0.77944108	     -0.00200000	     -0.29223210	      0.00000000	      0.11654926	      0.00000000
      0.78700000	      0.00000000	      0.00000000	      0.00000000	      0.00000000	      0.00000000	      0.00000000	      0.00000000	      0.00000000	      0.00000000	    -20.58597468	    473.01861271	     15.62540680	      0.78015368	     -0.00200000	     -0.29225097	      0.00000000	      0.12045949	      0.00000000
      0.78800000	      0.00000000	      0.00000000	      0.00000000	      0.00000000	      0.00000000	      0.00000000	      0.00000000	      0.00000000	      0.00000000	    -20.38597688	    472.18151391	     15.55811912	      0.78086324	     -0.00200000	     -0.29226813	      0.00000000	      0.12433061	      0.00000000
      0.78900000	      0.00000000	      0.00000000	      0.00000000	      0.00000000	      0.00000000	      0.00000000	      0.00000000	      0.00000000	      0.00000000	    -20.18754743	    471.38014063	     15.48508257	      0.78156890	     -0.00200000	     -0.29228320	      0.00000000	      0.12814108	      0.00000000
      0.79000000	      0.00000000	      0.00000000	      0.00000000	      0.00000000	      0.00000000	      0.00000000	      0.00000000	      0.00000000	      0.00000000	    -19.99028958	    470.60734779	     15.40752947	      0.78227137	     -0.00200000	     -0.29229660	      0.00000000	      0.13189328	      0.00000000
      0.79100000	      0.00000000	      0.00000000	      0.00000000	      0.00000000	      0.00000000	      0.00000000	      0.00000000	      0.00000000	      0.00000000	    -19.79439240	    469.87028047	     15.32443836	      0.78296979	     -0.00200000	     -0.29230796	      0.00000000	      0.13555999	      0.00000000
      0.79200000	      0.00000000	      0.00000000	      0.00000000	      0.00000000	      0.00000000	      0.00000000	      0.00000000	      0.00000000	      0.00000000	    -19.59951036	    469.16174144	     15.23700804	      0.78366490	     -0.00200000	     -0.29231770	      0.00000000	      0.13914702	      0.00000000
      0.79300000	      0.00000000	      0.00000000	      0.00000000	      0.00000000	      0.00000000	      0.00000000	      0.00000000	      0.00000000	      0.00000000	    -19.40581203	    468.48879755	     15.14427662	      0.78435579	     -0.00200000	     -0.29232544	      0.00000000	      0.14262061	      0.00000000
      0.79400000	      0.00000000	      0.00000000	      0.00000000	      0.00000000	      0.00000000	      0.00000000	      0.00000000	      0.00000000	      0.00000000	    -19.21299100	    467.84422547	     15.04741311	      0.78504323	     -0.00200000	     -0.29233160	      0.00000000	      0.14599234	      0.00000000
      0.79500000	      0.00000000	      0.00000000	      0.00000000	      0.00000000	      0.00000000	      0.00000000	      0.00000000	      0.00000000	      0.00000000	    -19.02117860	    467.23493561	     14.94553387	      0.78572627	     -0.00200000	     -0.29233583	      0.00000000	      0.14922126	      0.00000000
      0.79600000	      0.00000000	      0.00000000	      0.00000000	      0.00000000	      0.00000000	      0.00000000	      0.00000000	      0.00000000	      0.00000000	    -18.83009449	    466.65354818	     14.83977437	      0.78640575	     -0.00200000	     -0.29233858	      0.00000000	      0.15232395	      0.00000000
      0.79700000	      0.00000000	      0.00000000	      0.00000000	      0.00000000	      0.00000000	      0.00000000	      0.00000000	      0.00000000	      0.00000000	    -18.63981597	    466.10684320	     14.72934410	      0.78708067	     -0.00200000	     -0.29233953	      0.00000000	      0.15525490	      0.00000000
      0.79800000	      0.00000000	      0.00000000	      0.00000000	      0.00000000	      0.00000000	      0.00000000	      0.00000000	      0.00000000	      0.00000000	    -18.45010184	    465.58751911	     14.61532563	      0.78775191	     -0.00200000	     -0.29233913	      0.00000000	      0.15803910	      0.00000000
      0.79900000	      0.00000000	      0.00000000	      0.00000000	      0.00000000	      0.00000000	      0.00000000	      0.00000000	      0.00000000	      0.00000000	    -18.26099399	    465.10217339	     14.49701488	      0.78841847	     -0.00200000	     -0.29233709	      0.00000000	      0.16063071	      0.00000000
      0.80000000	      0.00000000	      0.00000000	      0.00000000	      0.00000000	      0.00000000	      0.00000000	      0.00000000	      0.00000000	      0.00000000	    -18.07229035	    464.64373916	     14.37543482	      0.78908125	     -0.00200000	     -0.29233379	      0.00000000	      0.16306233	      0.00000000
      0.80100000	      0.00000000	      0.00000000	      0.00000000	      0.00000000	      0.00000000	      0.00000000	      0.00000000	      0.00000000	      0.00000000	    -17.88398344	    464.21850100	     14.24998567	      0.78973924	     -0.00200000	     -0.29232898	      0.00000000	      0.16528980	      0.00000000
